<svg xmlns="http://www.w3.org/2000/svg" viewBox="0 0 400 300" width="406" height="306" class="illustration styles_illustrationTablet__1DWOa"><g id="_363_doctor_outline" data-name="#363_doctor_outline"><path d="M200.54,53.43a94.71,94.71,0,0,1,15.89-.65c3.61.1,7.63.47,10.07,3.22s1.25,8.49-2.36,8.46l15.53,3.71c3,.71,6.45,1.91,7.22,5,.83,3.3-2.17,6.2-4.84,8.23,2.84,8.87,6.51,16.7,6.51,26.29V123.7H154V107.64c0-18,5.42-31.9,15.13-46.68,1.17-1.77,3.18-3.78,5-2.73,1.3.76,1.44,2.62,1.3,4.16a32.89,32.89,0,0,1-2.63,10.33c3-8.22,10.38-14.12,18.42-17A48.23,48.23,0,0,1,200.54,53.43Z" fill="#725858"></path><path d="M248.56,124.7H154a1,1,0,0,1-1-1V107.64c0-16.8,4.58-30.92,15.3-47.22,2-3.05,4.36-4.19,6.32-3.05,1.42.82,2,2.54,1.8,5.1q-.1,1.23-.3,2.43a33.48,33.48,0,0,1,14.75-10.14,48.15,48.15,0,0,1,9.58-2.32h0a95.57,95.57,0,0,1,16.06-.65c4.06.11,8.18.61,10.78,3.54a7.06,7.06,0,0,1,.92,7.33,5.43,5.43,0,0,1-1,1.5l12.73,3c3.24.77,7.06,2.11,8,5.67,1,4-2.74,7.35-4.64,8.84.55,1.7,1.14,3.38,1.71,5,2.38,6.82,4.63,13.26,4.63,20.92V123.7A1,1,0,0,1,248.56,124.7Zm-93.61-2h92.61V107.64c0-7.32-2.2-13.6-4.52-20.26-.65-1.85-1.32-3.77-1.94-5.73a1,1,0,0,1,.35-1.1c3.54-2.69,5-5,4.47-7.19-.64-2.52-3.8-3.57-6.48-4.21L223.9,65.44a1,1,0,0,1-.76-1.1,1,1,0,0,1,1-.88h0a2.49,2.49,0,0,0,2.18-1.63,5.06,5.06,0,0,0-.59-5.17c-2.2-2.48-6-2.78-9.35-2.88a95.6,95.6,0,0,0-15.72.64h0a45.69,45.69,0,0,0-9.18,2.23c-7.92,2.84-14.22,8.33-17.18,14.85q-.31.82-.66,1.62a1,1,0,0,1-1.86-.74c.21-.57.44-1.13.69-1.69a31.93,31.93,0,0,0,1.89-8.39c.08-1,.09-2.68-.81-3.2-1.45-.85-3.43,2.08-3.65,2.41-10.49,15.95-15,29.75-15,46.13Z" fill="#093f68"></path><polyline points="193.74 175.23 193.74 161.79 208.44 161.79 208.44 175.23" fill="#ffc9b0"></polyline><path d="M208.44,176.23a1,1,0,0,1-1-1V162.79h-12.7v12.44a1,1,0,1,1-2,0V161.79a1,1,0,0,1,1-1h14.7a1,1,0,0,1,1,1v13.44A1,1,0,0,1,208.44,176.23Z" fill="#093f68"></path><ellipse cx="163.03" cy="125.35" rx="12.93" ry="12.31" fill="#ffc9b0"></ellipse><path d="M163,138.65c-7.68,0-13.93-6-13.93-13.3S155.35,112,163,112,177,118,177,125.35,170.71,138.65,163,138.65ZM163,114c-6.58,0-11.93,5.07-11.93,11.31s5.35,11.3,11.93,11.3S175,131.58,175,125.35,169.61,114,163,114Z" fill="#093f68"></path><ellipse cx="238.39" cy="125.35" rx="12.93" ry="12.31" fill="#ffc9b0"></ellipse><path d="M238.39,138.65c-7.68,0-13.93-6-13.93-13.3S230.71,112,238.39,112s13.93,6,13.93,13.31S246.07,138.65,238.39,138.65Zm0-24.61c-6.58,0-11.93,5.07-11.93,11.31s5.35,11.3,11.93,11.3,11.93-5.07,11.93-11.3S245,114,238.39,114Z" fill="#093f68"></path><path d="M238.56,101.3c3.32,5.86,3.78,12.47,3.78,21.09a43.79,43.79,0,0,1-13.5,31.85,40,40,0,0,1-54.31,1.11,43.77,43.77,0,0,1-14.69-33c0-11.19-.92-23.9,8.42-31.66a17.22,17.22,0,0,0,6.53,11c1.44,1.14,7.26,5.34,9.3,3.78s-.27-11.35-.53-14c.07.73,2.84,2.45,3.41,3.1a24.58,24.58,0,0,0,2.81,3.07,35.55,35.55,0,0,0,9.31,5.55c3.52,1.42,7.54,2.25,11.07.85s6-5.71,4.4-9.13c.63,1.32,3.32,2.2,4.47,3s1.87,1.85,3,2.42c2.65,1.33,7.35.22,7.19-3.4,0-1-.53-1.9-.57-2.89s.7-2.15,1.61-1.89A30.2,30.2,0,0,1,238.56,101.3Z" fill="#ffc9b0"></path><path d="M201.09,166.45a41.26,41.26,0,0,1-27.22-10.35,44.81,44.81,0,0,1-15-33.71c0-.91,0-1.82,0-2.75-.06-10.43-.14-22.25,8.8-29.68a1,1,0,0,1,1-.16,1,1,0,0,1,.62.81A16.18,16.18,0,0,0,175.41,101c3,2.39,7.08,4.52,8.07,3.77,1.18-.9-.08-8-.49-10.38-.2-1.16-.37-2.08-.43-2.69h0a1,1,0,0,1,.9-1.1,1,1,0,0,1,1.06.74,13.22,13.22,0,0,0,1.8,1.53,11,11,0,0,1,1.4,1.16c.28.32.54.64.8,1a14.31,14.31,0,0,0,1.89,2,34.49,34.49,0,0,0,9.05,5.39c4.11,1.65,7.58,1.94,10.33.85a7.15,7.15,0,0,0,3.89-4,4.73,4.73,0,0,0,0-3.81h0a1,1,0,0,1,1.8-.86h0c.29.59,1.6,1.25,2.56,1.73a13.15,13.15,0,0,1,1.58.88,12.3,12.3,0,0,1,1.34,1.13,6.84,6.84,0,0,0,1.56,1.22,5,5,0,0,0,4.57-.25,2.38,2.38,0,0,0,1.17-2.22,5.89,5.89,0,0,0-.25-1.22,7.75,7.75,0,0,1-.32-1.66,3.15,3.15,0,0,1,1.1-2.52,2,2,0,0,1,1.79-.38,1.15,1.15,0,0,1,.33.17,31.25,31.25,0,0,1,8.54,9.34c3.29,5.8,3.91,12.06,3.91,21.58A45,45,0,0,1,229.53,155,41.15,41.15,0,0,1,201.09,166.45ZM167.61,92.67c-6.92,6.85-6.85,17.06-6.79,27,0,.93,0,1.85,0,2.76a42.76,42.76,0,0,0,14.35,32.2,39,39,0,0,0,53-1.07,43,43,0,0,0,13.19-31.13c0-9.18-.58-15.18-3.65-20.59h0A28.94,28.94,0,0,0,230,93.27a1.37,1.37,0,0,0-.28.84,5.93,5.93,0,0,0,.25,1.21,7.61,7.61,0,0,1,.32,1.67,4.39,4.39,0,0,1-2.08,4,7,7,0,0,1-6.56.36,9,9,0,0,1-2-1.55,11.5,11.5,0,0,0-1.11-1,12.35,12.35,0,0,0-1.34-.74q-.52-.25-1.05-.54a7.62,7.62,0,0,1-.52,2.44,9.25,9.25,0,0,1-5,5.08c-3.24,1.29-7.21,1-11.8-.85a36.35,36.35,0,0,1-9.58-5.71A15.69,15.69,0,0,1,187,96.24c-.25-.3-.49-.6-.76-.9a13.42,13.42,0,0,0-1.11-.89l-.09-.07c1,5.69,1.62,10.49-.33,12-2.7,2.06-8.74-2.38-10.52-3.79A18.54,18.54,0,0,1,167.61,92.67Zm16.94-1.19Z" fill="#093f68"></path><path d="M203.14,136.83a24.12,24.12,0,0,1-3.84-.32,1,1,0,0,1-.82-1.16,1,1,0,0,1,1.16-.81,18.45,18.45,0,0,0,6.2,0c.45-.75-1.13-5.41-3.38-9.74a1,1,0,1,1,1.77-.92c1.08,2.06,4.5,9,3.37,11.51a1.89,1.89,0,0,1-1.28,1.09A13.47,13.47,0,0,1,203.14,136.83Z" fill="#093f68"></path><circle cx="219.2" cy="125.18" r="3.72" fill="#093f68"></circle><circle cx="184.15" cy="123.7" r="3.72" fill="#093f68"></circle><path d="M190.3,113.85H172.44a2,2,0,0,1,0-4H190.3a2,2,0,0,1,0,4Z" fill="#093f68"></path><path d="M230.07,113.85H212.22a2,2,0,0,1,0-4h17.85a2,2,0,0,1,0,4Z" fill="#093f68"></path><path d="M184.37,143.39c0,5.76,7.12,10.42,15.9,10.42s15.9-4.66,15.9-10.42Z" fill="#093f68"></path><path d="M200.27,154.81c-9.32,0-16.89-5.12-16.89-11.42a1,1,0,0,1,1-1h31.79a1,1,0,0,1,1,1C217.17,149.69,209.59,154.81,200.27,154.81Zm-14.81-10.42c.79,4.73,7.13,8.42,14.81,8.42s14-3.69,14.81-8.42Z" fill="#093f68"></path><rect x="153.95" y="83.57" width="94.24" height="9.29" rx="3.45" fill="#0d9488"></rect><path d="M244.74,93.86H157.41A4.46,4.46,0,0,1,153,89.4V87a4.46,4.46,0,0,1,4.46-4.45h87.33A4.46,4.46,0,0,1,249.2,87V89.4A4.46,4.46,0,0,1,244.74,93.86Zm-87.33-9.29A2.46,2.46,0,0,0,155,87V89.4a2.46,2.46,0,0,0,2.46,2.46h87.33a2.46,2.46,0,0,0,2.46-2.46V87a2.46,2.46,0,0,0-2.46-2.45Z" fill="#093f68"></path><circle cx="201.08" cy="87.35" r="12.06" fill="#fff"></circle><path d="M201.08,100.42a13.07,13.07,0,1,1,13.06-13.07A13.08,13.08,0,0,1,201.08,100.42Zm0-24.13a11.07,11.07,0,1,0,11.06,11.06A11.08,11.08,0,0,0,201.08,76.29Z" fill="#093f68"></path><path d="M201.08,93.53a6.18,6.18,0,1,1,6.17-6.18A6.18,6.18,0,0,1,201.08,93.53Zm0-10.35a4.18,4.18,0,1,0,4.17,4.17A4.18,4.18,0,0,0,201.08,83.18Z" fill="#dfeaef"></path><path d="M190.46,170.83h24.21a23.73,23.73,0,0,1,23.73,23.73v40.66a0,0,0,0,1,0,0H166.74a0,0,0,0,1,0,0V194.56A23.73,23.73,0,0,1,190.46,170.83Z" fill="#0d9488"></path><path d="M238.39,236.22H166.74a1,1,0,0,1-1-1V194.56a24.75,24.75,0,0,1,24.72-24.73h24.21a24.75,24.75,0,0,1,24.72,24.73v40.66A1,1,0,0,1,238.39,236.22Zm-70.65-2h69.65V194.56a22.75,22.75,0,0,0-22.72-22.73H190.46a22.75,22.75,0,0,0-22.72,22.73Z" fill="#093f68"></path><path d="M195.37,213a1,1,0,0,1-.83-.43l-12.08-17.71a1,1,0,0,1,.08-1.22l2.92-3.3L181,185a1,1,0,0,1,0-1.23l10-13.49a1,1,0,0,1,1.61,1.2l-9.54,12.85,4.47,5.4a1,1,0,0,1,0,1.3l-3,3.36,11.64,17.06a1,1,0,0,1-.26,1.39A1,1,0,0,1,195.37,213Z" fill="#093f68"></path><path d="M233.73,208.53c4.13-12.31,11.09-29.19,11.09-29.19l14.07,8s-5,45.83-20.5,47.89c-11,1.46-14.61-15.24-14.61-36.64" fill="#0d9488"></path><path d="M237.07,236.31a9.13,9.13,0,0,1-6.19-2.36c-5.37-4.71-8.1-16.61-8.1-35.37a1,1,0,0,1,2,0c0,17.9,2.57,29.62,7.42,33.87a7.27,7.27,0,0,0,6.06,1.78c5.91-.79,11.17-9.08,15.23-24a172.6,172.6,0,0,0,4.33-22.37l-12.5-7.1c-1.58,3.88-7.16,17.7-10.64,28.07a1,1,0,1,1-1.9-.63C236.87,196,243.83,179.13,243.9,179a1,1,0,0,1,1.42-.49l14.07,8a1,1,0,0,1,.5,1c-.21,1.9-5.27,46.63-21.37,48.77A12,12,0,0,1,237.07,236.31Z" fill="#093f68"></path><path d="M205.59,213.64a1,1,0,0,1-.83-1.55l11.71-17.74-3-3.37a1,1,0,0,1,0-1.3l4.46-5.4-9.53-12.85a1,1,0,0,1,1.6-1.2l10,13.49a1,1,0,0,1,0,1.23l-4.42,5.35,2.93,3.3a1,1,0,0,1,.08,1.21l-12.14,18.38A1,1,0,0,1,205.59,213.64Z" fill="#093f68"></path><polygon points="203.64 235.22 197.38 235.22 191.82 170.83 209.2 170.83 203.64 235.22" fill="#fff"></polygon><path d="M203.64,236.22h-6.26a1,1,0,0,1-1-.92l-5.56-64.38a1,1,0,0,1,1-1.09H209.2a1,1,0,0,1,1,1.09l-5.56,64.38A1,1,0,0,1,203.64,236.22Zm-5.35-2h4.43l5.39-62.39h-15.2Z" fill="#093f68"></path><path d="M246,168.93C238,171.6,233.69,182,229.53,192.05c-3.46,8.36-7,17-12.08,18.85-1.91.7-4,.42-6.55-.87-15.63-8-10.27-29.4-8.61-34.83,29.23-.69,52.77-21.84,52.77-47.77a2,2,0,0,0-2-2h-7.6a2,2,0,1,0,0,4H251c-1.2,23.23-23.25,41.8-50.18,41.8s-49-18.57-50.17-41.8h4.7a2,2,0,0,0,0-4H148.6a2,2,0,0,0-2,2c0,25.56,22.89,46.5,51.54,47.74-2.11,7.57-6.43,29.49,10.93,38.42a13.72,13.72,0,0,0,6.27,1.68,9.88,9.88,0,0,0,3.49-.62c6.69-2.45,10.43-11.49,14.4-21.07,3.82-9.23,7.77-18.77,14-20.85a2,2,0,0,0-1.27-3.8Z" fill="#f56132"></path><path d="M215.34,216.27a14.78,14.78,0,0,1-6.73-1.79c-17.28-8.89-13.8-30.29-11.75-38.38-28.84-1.81-51.26-23-51.26-48.67a3,3,0,0,1,3-3h6.76a3,3,0,0,1,0,6h-3.64c1.79,22.4,23.13,39.8,49.11,39.8s47.33-17.4,49.11-39.8h-4.48a3,3,0,1,1,0-6h7.6a3,3,0,0,1,3,3c0,12.81-5.59,24.91-15.75,34.09A58.51,58.51,0,0,1,203,176.18a48.36,48.36,0,0,0-1.93,15.4c.48,8.41,3.93,14.32,10.25,17.56,2.23,1.15,4.11,1.42,5.75.82,4.63-1.7,8.12-10.13,11.5-18.29,4.25-10.26,8.64-20.87,17-23.69h0a3,3,0,0,1,1.91,5.69c-5.79,2-9.66,11.27-13.39,20.29-4.05,9.79-7.88,19-15,21.63A11.14,11.14,0,0,1,215.34,216.27ZM148.6,126.43a1,1,0,0,0-1,1c0,25,22.22,45.51,50.59,46.74a1,1,0,0,1,.76.41,1,1,0,0,1,.16.86c-7,25.19,4.95,34.45,10.42,37.26,3.23,1.66,6.25,2,9,1,6.27-2.31,9.93-11.15,13.81-20.52s7.95-19.19,14.6-21.42a1,1,0,1,0-.63-1.9c-7.52,2.52-11.74,12.71-15.81,22.55-3.55,8.56-7.21,17.41-12.66,19.41-2.19.8-4.6.5-7.36-.92-7-3.59-10.8-10.06-11.33-19.22a50.74,50.74,0,0,1,2.23-16.79,1,1,0,0,1,.93-.71A56.6,56.6,0,0,0,239,160c9.73-8.8,15.09-20.38,15.09-32.61a1,1,0,0,0-1-1h-7.6a1,1,0,1,0,0,2H251a1,1,0,0,1,.73.31,1,1,0,0,1,.27.74c-1.24,24-23.72,42.75-51.18,42.75s-49.93-18.78-51.17-42.75a1,1,0,0,1,.27-.74,1,1,0,0,1,.73-.31h4.7a1,1,0,0,0,0-2Z" fill="#093f68"></path><path d="M240.06,169.26c.21-4.76,1.08-10.11,4.52-12,6.12-3.36,4.18,15.83,4.9,15.65,4.51-1.18,7.9-4.91,10.41-8.85,1.71-2.69,3.78-5.95,7-5.87,2.33.06,4.22,2.05,5,4.23,1.37,3.69.28,7.76-1.82,10.94-1,1.5-2.37,2.49-3.4,3.9-1.38,1.89-2.13,4.2-3.5,6.12a15.19,15.19,0,0,1-12.26,6.21,9.88,9.88,0,0,1-7.12-2.7c-2.94-3.08-3.81-7.45-3.8-11.57C240,173.75,240,171.58,240.06,169.26Z" fill="#ffc9b0"></path><path d="M251.05,190.59h-.14a10.77,10.77,0,0,1-7.83-3c-2.72-2.85-4.09-7-4.08-12.26V174c0-1.35,0-3,.06-4.78h0c.19-4.43.93-10.58,5-12.83a3.06,3.06,0,0,1,3.19-.15c2.66,1.56,2.93,7.63,3,13.71,0,.56,0,1.16,0,1.65,3.15-1.18,6.09-3.89,8.75-8.08,1.83-2.87,4.07-6.44,7.84-6.33,2.88.07,5.06,2.5,5.95,4.88,1.36,3.63.66,8-1.92,11.84a15,15,0,0,1-1.93,2.27,14.59,14.59,0,0,0-1.5,1.67,21.84,21.84,0,0,0-1.67,2.94A23.51,23.51,0,0,1,264,184,16.15,16.15,0,0,1,251.05,190.59Zm-10-21.28C241,171,241,172.65,241,174v1.34c0,4.76,1.18,8.42,3.53,10.88a9,9,0,0,0,6.4,2.39,14.11,14.11,0,0,0,11.44-5.8,21.26,21.26,0,0,0,1.65-2.9,21.72,21.72,0,0,1,1.85-3.22,17.24,17.24,0,0,1,1.68-1.89,14.29,14.29,0,0,0,1.7-2c2.22-3.36,2.84-7,1.71-10-.66-1.75-2.19-3.53-4.13-3.58h-.09c-2.57,0-4.39,2.86-6,5.4-3.25,5.1-7,8.22-11,9.28a1.07,1.07,0,0,1-.9-.18c-.53-.41-.54-.92-.56-3.72,0-3.26-.09-10.89-2-12-.11-.07-.44-.26-1.22.17-2.42,1.33-3.73,5-4,11.17Zm9.3,3.21Z" fill="#093f68"></path><circle cx="255.36" cy="170.57" r="8.77" fill="#fff"></circle><path d="M255.36,180.34a9.78,9.78,0,1,1,9.78-9.77A9.78,9.78,0,0,1,255.36,180.34Zm0-17.55a7.78,7.78,0,1,0,7.78,7.78A7.79,7.79,0,0,0,255.36,162.79Z" fill="#093f68"></path><path d="M255.36,176.09a5.53,5.53,0,1,1,5.53-5.52A5.53,5.53,0,0,1,255.36,176.09Zm0-9.05a3.53,3.53,0,1,0,3.53,3.53A3.53,3.53,0,0,0,255.36,167Z" fill="#dfeaef"></path><path d="M137.74,214.81a55.45,55.45,0,0,0-6.65-1.19,3,3,0,0,0-1.63.11,2.11,2.11,0,0,0-.85,2.67,5.06,5.06,0,0,0,2.09,2.21A14.58,14.58,0,0,0,140.89,221a3.74,3.74,0,0,0,1.89-.75c.95-.84,1.82-4.27.59-5.16-.55-.4-1.32.12-1.91.12A14.62,14.62,0,0,1,137.74,214.81Z" fill="#ffc9b0"></path><path d="M138.9,222.21a16.12,16.12,0,0,1-8.75-2.77,5.94,5.94,0,0,1-2.47-2.68,3.07,3.07,0,0,1,1.37-3.94,3.93,3.93,0,0,1,2.16-.2,60,60,0,0,1,6.77,1.21h0a13.17,13.17,0,0,0,3.46.42,2.21,2.21,0,0,0,.41-.09,2.31,2.31,0,0,1,2.1.16,2.73,2.73,0,0,1,1,2.23,6.42,6.42,0,0,1-1.53,4.49,4.67,4.67,0,0,1-2.39,1A12.91,12.91,0,0,1,138.9,222.21Zm-8.56-7.65a1.13,1.13,0,0,0-.47.08,1.15,1.15,0,0,0-.33,1.39,4.21,4.21,0,0,0,1.71,1.74,13.61,13.61,0,0,0,9.47,2.29,3,3,0,0,0,1.4-.52,4.88,4.88,0,0,0,.85-2.9c0-.48-.14-.67-.19-.7s-.23.1-.39.14a3.2,3.2,0,0,1-.92.17,15.35,15.35,0,0,1-4-.47h0a56,56,0,0,0-6.54-1.17A4.83,4.83,0,0,0,130.34,214.56Z" fill="#093f68"></path><circle cx="154.42" cy="187.59" r="3.85" fill="#093f68"></circle><path d="M154.41,192.44a4.86,4.86,0,1,1,1.11-.13A5.25,5.25,0,0,1,154.41,192.44Zm0-7.7a2.85,2.85,0,0,0-1.5,5.27,2.85,2.85,0,1,0,1.5-5.27Z" fill="#093f68"></path><rect x="144.85" y="187.48" width="21.02" height="8.26" transform="translate(-39.61 40.49) rotate(-13.18)" fill="#093f68"></rect><path d="M146.07,199a1,1,0,0,1-1-.78l-1.88-8A1,1,0,0,1,144,189l20.46-4.79a1,1,0,0,1,.76.12,1,1,0,0,1,.45.62l1.88,8a1,1,0,0,1-.75,1.2L146.3,199Zm-.68-8.3,1.42,6.09,18.52-4.34-1.42-6.09Z" fill="#093f68"></path><rect x="138.05" y="189.96" width="45.42" height="49.45" rx="2.75" transform="translate(-44.73 42.33) rotate(-13.18)" fill="#fff"></rect><path d="M146.34,244.39a3.76,3.76,0,0,1-3.65-2.9l-10-42.8a3.74,3.74,0,0,1,2.79-4.5l38.88-9.11a3.75,3.75,0,0,1,4.5,2.79l10,42.81a3.75,3.75,0,0,1-2.8,4.5l-38.88,9.11A4.11,4.11,0,0,1,146.34,244.39ZM175.19,187a1.9,1.9,0,0,0-.4.05l-38.88,9.11a1.68,1.68,0,0,0-1.08.78,1.72,1.72,0,0,0-.22,1.31l10,42.81a1.75,1.75,0,0,0,2.1,1.3l38.88-9.11h0a1.72,1.72,0,0,0,1.08-.78,1.7,1.7,0,0,0,.22-1.32l-10-42.8A1.76,1.76,0,0,0,175.19,187Z" fill="#093f68"></path><rect x="130.71" y="217.41" width="15.77" height="4.39" rx="2.19" transform="translate(-85.37 88.17) rotate(-27.34)" fill="#ffc9b0"></rect><path d="M133.55,225.41a3.28,3.28,0,0,1-1-.15,3.18,3.18,0,0,1-1.86-1.57,3.14,3.14,0,0,1-.21-2.44,3.18,3.18,0,0,1,1.58-1.87l10.11-5.22a3.19,3.19,0,0,1,4.51,3.8,3.15,3.15,0,0,1-1.58,1.87L135,225.06A3.27,3.27,0,0,1,133.55,225.41Zm10.1-9.61a1.2,1.2,0,0,0-.55.13L133,221.16a1.19,1.19,0,0,0-.52,1.61,1.24,1.24,0,0,0,.7.59,1.2,1.2,0,0,0,.91-.08l10.11-5.23h0a1.19,1.19,0,0,0,.59-.69,1.22,1.22,0,0,0-.78-1.51A1.49,1.49,0,0,0,143.65,215.8Z" fill="#093f68"></path><rect x="132.73" y="221.31" width="15.77" height="4.39" rx="2.19" transform="translate(-86.93 89.53) rotate(-27.34)" fill="#ffc9b0"></rect><path d="M135.56,229.31a3.19,3.19,0,0,1-1.47-6l10.11-5.23a3.2,3.2,0,0,1,2.93,5.68h0L137,229A3.1,3.1,0,0,1,135.56,229.31Zm10.11-9.61a1.17,1.17,0,0,0-.55.13L135,225.06a1.19,1.19,0,0,0,1.1,2.12L146.22,222h0a1.2,1.2,0,0,0,.51-1.61A1.19,1.19,0,0,0,145.67,219.7Zm1,3.14h0Z" fill="#093f68"></path><rect x="134.74" y="225.21" width="15.77" height="4.39" rx="2.19" transform="translate(-88.5 90.89) rotate(-27.34)" fill="#ffc9b0"></rect><path d="M137.58,233.21a3.19,3.19,0,0,1-1.47-6L146.22,222a3.2,3.2,0,0,1,2.93,5.68h0L139,232.85A3.09,3.09,0,0,1,137.58,233.21Zm10.1-9.61a1.2,1.2,0,0,0-.55.13L137,229a1.2,1.2,0,0,0-.52,1.61,1.17,1.17,0,0,0,.7.59,1.19,1.19,0,0,0,.91-.07l10.11-5.23h0a1.2,1.2,0,0,0-.19-2.2A1.08,1.08,0,0,0,147.68,223.6Zm1,3.14h0Z" fill="#093f68"></path><rect x="136.76" y="229.11" width="15.77" height="4.39" rx="2.19" transform="translate(-90.06 92.25) rotate(-27.34)" fill="#ffc9b0"></rect><path d="M139.59,237.11a3.27,3.27,0,0,1-1-.15,3.2,3.2,0,0,1-.5-5.88l10.11-5.23a3.19,3.19,0,0,1,4.51,3.81,3.23,3.23,0,0,1-1.57,1.87l-10.11,5.22A3.16,3.16,0,0,1,139.59,237.11Zm10.11-9.62a1.18,1.18,0,0,0-.55.14L139,232.85a1.24,1.24,0,0,0-.59.7,1.15,1.15,0,0,0,.08.91,1.14,1.14,0,0,0,.7.59,1.2,1.2,0,0,0,.91-.07l10.11-5.23h0a1.19,1.19,0,0,0,.51-1.61,1.24,1.24,0,0,0-.7-.59A1.13,1.13,0,0,0,149.7,227.49Z" fill="#093f68"></path></g></svg>